<?xml version="1.0" encoding="utf-8"?>
<!-- Generator: Adobe Illustrator 24.3.0, SVG Export Plug-In . SVG Version: 6.00 Build 0)  -->
<!DOCTYPE svg PUBLIC "-//W3C//DTD SVG 1.1//EN" "http://www.w3.org/Graphics/SVG/1.1/DTD/svg11.dtd" [
	<!ENTITY ns_extend "http://ns.adobe.com/Extensibility/1.0/">
	<!ENTITY ns_ai "http://ns.adobe.com/AdobeIllustrator/10.0/">
	<!ENTITY ns_graphs "http://ns.adobe.com/Graphs/1.0/">
	<!ENTITY ns_vars "http://ns.adobe.com/Variables/1.0/">
	<!ENTITY ns_imrep "http://ns.adobe.com/ImageReplacement/1.0/">
	<!ENTITY ns_sfw "http://ns.adobe.com/SaveForWeb/1.0/">
	<!ENTITY ns_custom "http://ns.adobe.com/GenericCustomNamespace/1.0/">
	<!ENTITY ns_adobe_xpath "http://ns.adobe.com/XPath/1.0/">
]>
<svg version="1.1" xmlns:x="&ns_extend;" xmlns:i="&ns_ai;" xmlns:graph="&ns_graphs;"
	 xmlns="http://www.w3.org/2000/svg" xmlns:xlink="http://www.w3.org/1999/xlink" x="0px" y="0px" width="1000px" height="700px"
	 viewBox="0 0 1000 700" style="enable-background:new 0 0 1000 700;" xml:space="preserve">
<style type="text/css">
	.st0{fill:#FFFFFF;}
	.st1{fill:none;stroke:#00B9D2;stroke-width:2;stroke-linecap:round;stroke-linejoin:round;stroke-miterlimit:10;}
	.st2{fill:#00B9D2;}
	.st3{font-family:'Rubik-Regular';}
	.st4{font-size:18px;}
	.st5{font-size:20px;}
	.st6{fill:none;stroke:#00B9D2;stroke-width:1.5;stroke-linecap:round;stroke-linejoin:round;stroke-miterlimit:10;}
	.st7{fill:none;stroke:#00B9D2;stroke-width:2.75;stroke-linecap:round;stroke-linejoin:round;stroke-miterlimit:10;}
	.st8{fill:none;stroke:#00B9D2;stroke-width:2.25;stroke-linecap:round;stroke-linejoin:round;stroke-miterlimit:10;}
	.st9{fill:none;stroke:#00B9D2;stroke-width:3.5;stroke-linecap:round;stroke-linejoin:round;stroke-miterlimit:10;}
	.st10{fill:none;stroke:#00B9D2;stroke-width:3;stroke-linecap:round;stroke-linejoin:round;stroke-miterlimit:10;}
</style>
<metadata>
	<sfw  xmlns="&ns_sfw;">
		<slices></slices>
		<sliceSourceBounds  bottomLeftOrigin="true" height="1781" width="5072.7" x="-4718.7" y="880"></sliceSourceBounds>
	</sfw>
</metadata>
<g id="FILL-BACKGROUND">
	<rect class="st0" width="1000" height="700"/>
</g>
<g id="N-DIMENSIONS">
	<g>
		<g>
			<text transform="matrix(1 0 0 1 146.2502 123.6206)" class="st2 st3 st4">496 ppi</text>
		</g>
		<g>
			<g id="MTEXT_16_">
				<g>
					<g>
						<text transform="matrix(1 0 0 1 241.3762 314.7905)"><tspan x="0" y="0" class="st2 st3 st4">6.9” </tspan><tspan x="-46.3" y="19.6" class="st2 st3 st4">175.3 mm</tspan></text>
					</g>
				</g>
			</g>
			<g>
				<g id="POLYLINE_290_">
					<line class="st1" x1="133.1" y1="583" x2="235.8" y2="348.5"/>
				</g>
				<g id="POLYLINE_289_">
					<line class="st1" x1="260.8" y1="290" x2="341.7" y2="95.8"/>
				</g>
				<g id="POLYLINE_288_">
					<polyline class="st1" points="130.1,574.6 133.1,583 141.6,580 					"/>
				</g>
				<g id="POLYLINE_287_">
					<polyline class="st1" points="344.7,104.3 341.7,95.8 333.2,98.8 					"/>
				</g>
			</g>
		</g>
		<g>
			<g id="POLYLINE_286_">
				<polyline class="st1" points="133.7,539.3 127.4,545.7 133.7,552 				"/>
			</g>
			<g id="POLYLINE_285_">
				<line class="st1" x1="127.4" y1="545.7" x2="197.7" y2="545.7"/>
			</g>
			<g id="POLYLINE_284_">
				<line class="st1" x1="275.2" y1="545.7" x2="345.7" y2="545.7"/>
			</g>
			<g id="POLYLINE_283_">
				<polyline class="st1" points="339.3,539.3 345.7,545.7 339.3,552.1 				"/>
			</g>
			<g id="MTEXT_15_">
				<g>
					<text transform="matrix(1 0 0 1 204.0718 551.6548)" class="st2 st3 st4">1440 px </text>
				</g>
			</g>
		</g>
		<g>
			<g id="POLYLINE_282_">
				<polyline class="st1" points="316.8,98.8 310.5,92.4 304.1,98.8 				"/>
			</g>
			<g id="POLYLINE_281_">
				<line class="st1" x1="310.5" y1="92.4" x2="310.5" y2="444.1"/>
			</g>
			<g id="POLYLINE_280_">
				<line class="st1" x1="310.5" y1="477.1" x2="310.5" y2="586.6"/>
			</g>
			<g id="POLYLINE_279_">
				<polyline class="st1" points="316.8,580.2 310.5,586.5 304.1,580.2 				"/>
			</g>
			<g id="MTEXT_14_">
				<g>
					<text transform="matrix(1 0 0 1 260.9038 464.9526)" class="st2 st3 st4">3088 px </text>
				</g>
			</g>
		</g>
	</g>
	<g>
		<g>
			<g id="POLYLINE_278_">
				<polyline class="st1" points="872.2,635.7 878.6,629.4 872.2,623 				"/>
			</g>
			<g id="POLYLINE_277_">
				<line class="st1" x1="878.6" y1="629.4" x2="872.3" y2="629.4"/>
			</g>
			<g id="POLYLINE_276_">
				<line class="st1" x1="872.3" y1="629.4" x2="849.2" y2="629.4"/>
			</g>
			<g id="POLYLINE_275_">
				<polyline class="st1" points="855.5,635.7 849.2,629.3 855.5,623 				"/>
			</g>
			<g id="MTEXT_9_">
				<g>
					<g>
						<text transform="matrix(1 0 0 1 762.5046 661.4497)" class="st2 st3 st5">.32” | 8.1 mm</text>
					</g>
				</g>
			</g>
		</g>
		<g>
			<g id="POLYLINE_274_">
				<polyline class="st1" points="120,633.4 113.6,639.7 120,646.1 				"/>
			</g>
			<g id="POLYLINE_273_">
				<line class="st1" x1="113.6" y1="639.7" x2="158.1" y2="639.7"/>
			</g>
			<g id="POLYLINE_272_">
				<line class="st1" x1="313.7" y1="639.7" x2="358.6" y2="639.7"/>
			</g>
			<g id="POLYLINE_271_">
				<polyline class="st1" points="352.2,633.4 358.5,639.8 352.2,646.1 				"/>
			</g>
			<g id="MTEXT_4_">
				<g>
					<text transform="matrix(1 0 0 1 166.4819 646.7231)" class="st2 st3 st5">3.04” | 77.2 mm</text>
				</g>
			</g>
		</g>
		<g>
			<g id="POLYLINE_270_">
				<polyline class="st1" points="914.5,81.6 908.1,75.3 901.7,81.6 				"/>
			</g>
			<g id="POLYLINE_269_">
				<line class="st1" x1="908.1" y1="75.5" x2="908.1" y2="603.2"/>
			</g>
			<g id="POLYLINE_268_">
				<polyline class="st1" points="914.4,596.8 908.1,603.2 901.7,596.8 				"/>
			</g>
			<g id="MTEXT_3_">
				<g>
					<text transform="matrix(1 0 0 1 760.1851 56.7231)" class="st2 st3 st5">6.49” | 164.8 mm</text>
				</g>
			</g>
		</g>
	</g>
</g>
<g id="N-TEXT">
</g>
<g id="AG-DETAILS">
	<g id="POLYLINE_267_">
		<path class="st6" d="M360,86.5c0-1-0.3-2.1-0.9-2.9c-0.5-0.8-1.3-1.5-2.1-1.9c-0.6-0.3-1.2-0.5-1.9-0.5c0.1-0.1-236.9,0-237,0
			c-0.8,0-1.7,0.2-2.4,0.6c-0.9,0.5-1.7,1.2-2.2,2.1c-0.5,0.8-0.8,1.8-0.8,2.8"/>
	</g>
	<g id="POLYLINE_266_">
		<path class="st6" d="M360,594.1c0,1-0.3,2.1-0.9,2.9c-0.5,0.8-1.3,1.5-2.1,1.9c-0.6,0.3-1.2,0.5-1.9,0.5c0.1,0.1-236.9,0-237,0
			c-0.8,0-1.7-0.2-2.4-0.6c-0.9-0.5-1.7-1.2-2.2-2.1c-0.5-0.8-0.8-1.8-0.8-2.8"/>
	</g>
	<g id="POLYLINE_265_">
		<path class="st6" d="M239.8,94.4c0-0.8-0.3-1.5-0.7-2.1c-0.5-0.6-1.1-1-1.9-1.2c-2.2-0.6-4.3,1.1-4.3,3.4c0,2.2,2.1,3.9,4.3,3.3
			c0.7-0.2,1.4-0.6,1.9-1.2C239.5,95.9,239.8,95.1,239.8,94.4z"/>
	</g>
	<g id="POLYLINE_264_">
		<path class="st6" d="M851.8,600.9c1.4-0.5,2.9-1.2,4-2.3c1-0.9,1.8-2,2.2-3.2c0.3-0.8,0.5-1.7,0.6-2.6c0.2,0.1,0-502.7,0.1-503
			c0-1.6-0.2-3.3-0.7-4.8c-0.5-1.4-1.2-2.6-2.2-3.6c-1-1-2.3-1.8-3.6-2.4"/>
	</g>
	<g id="POLYLINE_263_">
		<path class="st6" d="M875.5,77.8c-7,2.3-11.6,6.7-11.6,14.4v82.2l0,0l0,0l0,0l0,0l0,0l0,0l0,0l0,0l0,0l0,0l0,0l0,0l0,0l0,0l0,0
			l0,0l0,0l0,0l0,0l0,0l0,0l0,0l0,0l0,0l0,0l0,0l0,0l0,0l0,0l0,0l0,0l0,0l0,0l0,0l0,0l0,0l0,0l0,0l0,0l0,0l0,0l0,0l0,0l0,0l0,0l0,0
			l0,0l0,0l0,0l0,0l0,0l0,0l0,0l0,0l0,0l0,0l0,0l0,0l0,0l0,0l0,0l0,0l0,0l0,0l4.1,5.2l0,0l0,0l0,0l0,0l0,0l0,0l0,0l0,0l0,0l0,0l0,0
			l0,0l0,0l0,0l0,0l0,0l0,0l0,0l0,0l0,0l0,0l0,0l0,0l0,0l0,0l0,0l0,0l0,0l0,0l0,0l0,0l0,0l0,0l0,0l0,0l0,0l0,0l0,0l0,0l0,0l0,0l0,0
			l0,0l0,0l0,0l0,0l0,0l0,0l0,0l0,0l0,0l0,0l0,0l0,0l0,0l0,0l0,0l0,0l0,0l0,0l0,0l0,0l0,0l0,0v120.3l0,0l0,0l0,0l0,0l0,0l0,0l0,0
			l0,0l0,0l0,0l0,0l0,0l0,0l0,0l0,0l0,0l0,0l0,0l0,0l0,0l0,0l0,0l0,0l0,0l0,0l0,0l0,0l0,0l0,0l0,0l0,0l0,0l0,0l0,0l0,0l0,0l0,0l0,0
			l0,0l0,0l0,0l0,0l0,0l0,0l0,0l0,0l0,0l0,0l0,0l0,0l0,0l0,0l0,0l0,0l0,0l0,0l0,0l0,0l0,0l0,0l0,0l0,0l0,0l0,0l-4.1,5.2l0,0l0,0l0,0
			l0,0l0,0l0,0l0,0l0,0l0,0l0,0l0,0l0,0l0,0l0,0l0,0l0,0l0,0l0,0l0,0l0,0l0,0l0,0l0,0l0,0l0,0l0,0l0,0l0,0l0,0l0,0l0,0l0,0l0,0l0,0
			l0,0l0,0l0,0l0,0l0,0l0,0l0,0l0,0l0,0l0,0l0,0l0,0l0,0l0,0l0,0l0,0l0,0l0,0l0,0l0,0l0,0l0,0l0,0l0,0l0,0l0,0l0,0l0,0l0,0l0,0
			v273.7c0,7.3,6.1,10.7,12.4,12.5"/>
	</g>
	<g id="POLYLINE_262_">
		<line class="st6" x1="863.9" y1="114.2" x2="858.7" y2="114.2"/>
	</g>
	<g id="POLYLINE_261_">
		<line class="st6" x1="863.9" y1="118" x2="858.7" y2="118"/>
	</g>
	<g id="POLYLINE_260_">
		<path class="st6" d="M482,86.5c0-1,0.3-2.1,0.9-2.9c0.5-0.8,1.3-1.5,2.1-1.9c0.6-0.3,1.2-0.5,1.9-0.5c-0.1-0.1,236.9,0,237,0
			c0.8,0,1.7,0.2,2.4,0.6c0.9,0.5,1.7,1.2,2.2,2.1c0.5,0.8,0.8,1.8,0.8,2.8"/>
	</g>
	<g id="POLYLINE_259_">
		<path class="st6" d="M482,594.1c0,1,0.3,2.1,0.9,2.9c0.5,0.8,1.3,1.5,2.1,1.9c0.6,0.3,1.2,0.5,1.9,0.5c-0.1,0.1,236.9,0,237,0
			c0.8,0,1.7-0.2,2.4-0.6c0.9-0.5,1.7-1.2,2.2-2.1c0.5-0.8,0.8-1.8,0.8-2.8"/>
	</g>
	<g id="POLYLINE_258_">
		<line class="st6" x1="638.1" y1="81.1" x2="638.1" y2="76.4"/>
	</g>
	<g id="POLYLINE_257_">
		<line class="st6" x1="641.3" y1="81.1" x2="641.3" y2="76.4"/>
	</g>
	<g id="POLYLINE_256_">
		<line class="st6" x1="203.9" y1="81.1" x2="203.9" y2="76.4"/>
	</g>
	<g id="POLYLINE_255_">
		<line class="st6" x1="200.7" y1="81.1" x2="200.7" y2="76.4"/>
	</g>
	<g id="POLYLINE_254_">
		<path class="st6" d="M541.1,119.4c0-5.1-3.5-9.6-8.5-10.9c-7.1-1.8-13.9,3.5-14,10.8c0,7.4,6.8,12.8,14,11
			C537.6,129,541.1,124.5,541.1,119.4z"/>
	</g>
	<g id="POLYLINE_253_">
		<path class="st6" d="M541.1,168.2c0-5.1-3.5-9.6-8.5-10.9c-7.1-1.8-13.9,3.5-14,10.8c0,7.4,6.8,12.8,14,11
			C537.6,177.9,541.1,173.3,541.1,168.2z"/>
	</g>
	<g id="POLYLINE_252_">
		<path class="st6" d="M541.1,217.1c0-5.1-3.5-9.6-8.5-10.9c-7.1-1.8-13.9,3.5-14,10.8c0,7.4,6.8,12.8,14,11
			C537.6,226.7,541.1,222.2,541.1,217.1z"/>
	</g>
	<g id="POLYLINE_251_">
		<path class="st6" d="M571,172.5c0.9,0,1.9-0.3,2.6-0.9c0.8-0.6,1.3-1.4,1.5-2.3c0.7-2.7-1.3-5.3-4.1-5.4c-2.8,0-4.9,2.6-4.2,5.4
			c0.2,0.9,0.8,1.8,1.5,2.3C569.1,172.2,570,172.5,571,172.5z"/>
	</g>
</g>
<g id="AG-DIGITAL">
	<g id="POLYLINE_168_">
		<path class="st8" d="M118.1,76.4c-1.7,0-3.3,0.8-4.3,2.1c-0.4,0.6-0.8,1.2-0.9,1.9c-0.1,0.5-0.2,0.9-0.2,1.4
			c-0.1,0.1,0,517.2,0,517.4c0,0.3,0.1,0.7,0.2,1c0.2,0.8,0.6,1.6,1.1,2.2c0.5,0.6,1.2,1.2,2,1.5c0.6,0.2,1.2,0.4,1.8,0.4
			c0.4,0.2,236.5-0.1,236.9,0c0.3,0,0.6,0,0.9-0.1c1.4-0.3,2.7-1.2,3.5-2.4c0.5-0.7,0.8-1.6,0.8-2.5c0.1-0.6,0-517.2,0-517.9
			c0-0.4-0.1-0.8-0.2-1.2c-0.4-1.3-1.3-2.4-2.4-3.1c-0.5-0.3-1.1-0.5-1.6-0.6c-0.3-0.1-0.6-0.1-0.9-0.1
			C354.6,76.3,118.2,76.4,118.1,76.4z"/>
	</g>
	<g id="POLYLINE_167_">
		<path class="st8" d="M126.6,595.9c-3.6,0-7-2.1-8.6-5.3c-0.5-1-0.8-2.1-1-3.2c-0.6-0.4,0.3-493.1-0.1-493.7c0-1.5,0.4-3,1-4.3
			c0.8-1.7,2.2-3.1,3.8-4c1.4-0.8,3.1-1.3,4.8-1.3c0.1-0.1,219.5,0,219.6,0c0,0,0.2,0,0.2,0l0.2,0l0.2,0l0.2,0
			c0.4,0,0.9,0.1,1.3,0.2c1.1,0.2,2.1,0.7,3,1.3c1.8,1.2,3.2,3,3.9,5c0.3,0.8,0.4,1.6,0.5,2.4c0.1,1.6,0,492.2,0,493.9
			c-0.1,1.4-0.5,2.8-1.2,4.1c-1,1.7-2.5,3.1-4.3,4c-0.8,0.3-1.6,0.6-2.4,0.7c-0.4,0.1-0.9,0.1-1.3,0.1
			C346.1,596.1,126.9,595.7,126.6,595.9z"/>
	</g>
	<g id="POLYLINE_166_">
		<path class="st8" d="M125.3,604.3c0.1,1.3,0.8,2.5,1.9,3.2c0.8,0.5,1.8,0.8,2.8,0.8c0,0,12.1-0.2,12.1-0.2c0.1,0,0.2,0,0.3,0
			c0.4,0,0.9-0.1,1.3-0.3c0.7-0.3,1.4-0.7,1.9-1.3c0.5-0.6,0.9-1.4,0.9-2.2"/>
	</g>
	<g id="POLYLINE_165_">
		<path class="st8" d="M242.6,94.4c0-2.9-2-5.4-4.8-6.1c-4-1-7.8,2-7.8,6.1c0,4.1,3.8,7.2,7.8,6.2C240.6,99.8,242.6,97.2,242.6,94.4
			z"/>
	</g>
	<g id="POLYLINE_164_">
		<path class="st8" d="M856.9,76.4c-1,0-2,0.3-2.8,0.8c-0.8,0.5-1.5,1.1-1.9,1.9c-0.4,0.7-0.7,1.5-0.7,2.3
			c0.1,2.2-0.2,516.4,0.1,518.5c0.2,1.1,0.8,2,1.5,2.8c0.9,0.8,2,1.4,3.2,1.5c0.2,0,0.4,0,0.7,0c0,0,15,0,15,0l0.1,0
			c0,0,0.1,0,0.2,0c0.4,0,0.8-0.1,1.2-0.2c0.8-0.2,1.5-0.6,2.1-1.1c1-0.8,1.6-2,1.8-3.2c0.3-0.3,0-517.5,0.1-518.2
			c0-0.5-0.1-1.1-0.3-1.6c-0.5-1.5-1.8-2.8-3.3-3.3c-0.5-0.2-1-0.3-1.5-0.3l-0.1,0l-0.1,0c0,0-0.1,0-0.2,0
			C871.8,76.4,856.9,76.4,856.9,76.4z"/>
	</g>
	<g id="POLYLINE_163_">
		<path class="st8" d="M864,243.7c0.6,0,1.1-0.2,1.5-0.6c0.4-0.4,0.6-0.9,0.6-1.5c0-0.1,0-54.9,0-55c0-0.1,0-0.2,0-0.3
			c-0.1-0.4-0.2-0.7-0.4-1c-0.4-0.5-1-0.8-1.7-0.8c-0.6,0-1.2,0.3-1.6,0.8c-0.2,0.3-0.4,0.6-0.4,1c0,0.1,0,0.2,0,0.3c0,0,0,55,0,55
			c0,0.6,0.2,1.1,0.7,1.5C862.9,243.5,863.5,243.7,864,243.7z"/>
	</g>
	<g id="POLYLINE_162_">
		<path class="st8" d="M864,305.6c0.4,0,0.8-0.1,1.2-0.4c0.4-0.2,0.6-0.6,0.8-1c0.1-0.2,0.1-0.4,0.1-0.6c0-0.1,0-28.1,0-28.2
			c0-0.1,0-0.2,0-0.4c-0.1-0.3-0.2-0.5-0.3-0.8c-0.2-0.4-0.6-0.6-1-0.8c-0.4-0.1-0.8-0.2-1.2-0.1c-0.6,0.1-1.2,0.5-1.5,1.1
			c-0.1,0.2-0.2,0.4-0.2,0.7c0,0.1,0,0.2,0,0.2c0,0.2,0,28,0,28.2c0,0.2,0,0.4,0.1,0.6c0.1,0.4,0.4,0.8,0.8,1
			C863.2,305.4,863.6,305.6,864,305.6z"/>
	</g>
	<g id="POLYLINE_161_">
		<rect x="360" y="273.3" class="st8" width="2.4" height="32.3"/>
	</g>
	<g id="POLYLINE_160_">
		<rect x="360" y="184.5" class="st8" width="2.4" height="59.2"/>
	</g>
	<g id="POLYLINE_159_">
		<path class="st8" d="M877.3,241.5h3.6l0.1,0l0.1,0l0.1,0l0.1,0l0.1,0l0.1,0l0.1,0l0.1,0l0.1,0l0.1,0l0.1,0l0.1,0l0.1,0l0.1,0
			l0.1,0l0.1,0l0.1,0l0.1,0l0.1,0l0.1,0l0.1,0l0.1,0l0.1,0l0.1,0l0.1,0l0.1,0l0.1,0l0.1,0l0.1,0l0.1,0l0.1,0l0.1,0l0.1,0l0.1,0
			l0.1,0l0.1,0l0.1,0l0,0l0,0l0,0l0,0l0,0l0,0l0,0l0,0l0,0l0,0l0,0l0,0l0,0l0,0l0,0l0,0l0,0l0-0.1l0-0.1l0-0.1l0-0.1l0-0.1l0-0.1
			l0-0.1l0-0.1l0-0.1l0-0.1l0-0.1l0-0.1l0-0.1l0-0.1l0-0.1l0-0.1l0-0.1l0-0.1l0-0.1l0-0.1l0-0.1l0-0.1l0-0.1l0-0.1l0-0.1l0-0.1
			l0-0.1l0-0.1l0-0.1l0-0.1l0-0.1l0-0.1l0-0.1l0-0.1l0-0.1l0-0.1l0-0.1V98.6c0-1.3-0.7-2.5-1.9-3.2c-0.4-0.2-0.8-0.3-1.2-0.4
			c-0.2-0.1-3.8,0-4.1,0"/>
	</g>
	<g id="POLYLINE_158_">
		<path class="st8" d="M723.9,76.4c1.7,0,3.3,0.8,4.3,2.1c0.4,0.6,0.8,1.2,0.9,1.9c0.1,0.5,0.2,0.9,0.2,1.4c0.1,0.1,0,517.2,0,517.4
			c0,0.3-0.1,0.7-0.2,1c-0.2,0.8-0.6,1.6-1.1,2.2c-0.5,0.6-1.2,1.2-2,1.5c-0.6,0.2-1.2,0.4-1.8,0.4c-0.4,0.2-236.5-0.1-236.9,0
			c-0.3,0-0.6,0-0.9-0.1c-1.4-0.3-2.7-1.2-3.5-2.4c-0.5-0.7-0.8-1.6-0.8-2.5c-0.1-0.6,0-517.2,0-517.9c0-0.4,0.1-0.8,0.2-1.2
			c0.4-1.3,1.3-2.4,2.4-3.1c0.5-0.3,1.1-0.5,1.6-0.6c0.3-0.1,0.6-0.1,0.9-0.1C487.4,76.3,723.8,76.4,723.9,76.4z"/>
	</g>
	<g id="POLYLINE_157_">
		<path class="st8" d="M716.7,604.3c-0.1,1.3-0.8,2.5-1.9,3.2c-0.8,0.5-1.8,0.8-2.8,0.8c0,0-12.1-0.2-12.1-0.2c-0.1,0-0.2,0-0.3,0
			c-0.4,0-0.9-0.1-1.3-0.3c-0.7-0.3-1.4-0.7-1.9-1.3c-0.5-0.6-0.9-1.4-0.9-2.2"/>
	</g>
	<g id="POLYLINE_156_">
		<rect x="479.6" y="273.3" class="st8" width="2.4" height="32.3"/>
	</g>
	<g id="POLYLINE_155_">
		<rect x="479.6" y="184.5" class="st8" width="2.4" height="59.2"/>
	</g>
	<g id="POLYLINE_154_">
		<path class="st8" d="M579.4,241.5c4.7,0,9.2-2.5,11.5-6.6c0.8-1.3,1.3-2.8,1.6-4.3c0.1-0.7,0.2-1.4,0.2-2.1
			c0.2-0.2-0.1-119.9,0-120.2c0-0.5,0-1.1-0.1-1.6c-0.1-1.1-0.4-2.1-0.8-3.1c-1.3-3.5-4.1-6.3-7.6-7.7c-1.4-0.6-3-0.9-4.5-0.9
			c-0.1,0-0.3,0-0.5,0c-0.2,0-65.9,0-66.1,0c-0.4,0-0.9,0-1.4,0.1c-1.5,0.2-3,0.6-4.4,1.3c-2.3,1.2-4.3,3.1-5.6,5.3
			c-0.9,1.6-1.5,3.4-1.7,5.2c0,0.4-0.1,0.8-0.1,1.2c0.1,0.9-0.1,119.5,0,120.4c0,0.8,0.1,1.7,0.3,2.5c0.8,3.6,3.2,6.8,6.4,8.7
			c1.1,0.6,2.2,1.1,3.4,1.4c0.7,0.2,1.4,0.3,2.1,0.3c0.3,0,0.6,0,0.9,0C513.4,241.7,579.2,241.4,579.4,241.5z"/>
	</g>
	<g id="POLYLINE_153_">
		<path class="st8" d="M577.2,119.4c0-2.8-1.9-5.3-4.7-6c-3.9-1-7.7,1.9-7.7,6c0,4.1,3.8,7.1,7.7,6.1
			C575.2,124.7,577.2,122.2,577.2,119.4z"/>
	</g>
	<g id="POLYLINE_152_">
		<path class="st8" d="M536,119.4c0-2.8-1.9-5.3-4.7-6c-3.9-1-7.7,1.9-7.7,6c0,4.1,3.8,7.1,7.7,6.1
			C534.1,124.7,536.1,122.2,536,119.4z"/>
	</g>
	<g id="POLYLINE_151_">
		<path class="st8" d="M548.2,119.4c0-6.2-3.2-12.1-8.3-15.4c-9.4-6.2-22.1-2.5-26.8,7.8c-2.2,4.8-2.2,10.5,0,15.2
			c4.7,10.3,17.4,13.9,26.8,7.8C545.1,131.4,548.3,125.5,548.2,119.4z"/>
	</g>
	<g id="POLYLINE_150_">
		<path class="st8" d="M536,168.2c0-2.8-1.9-5.3-4.7-6c-3.9-1-7.7,1.9-7.7,6c0,4.1,3.8,7.1,7.7,6.1C534.1,173.6,536.1,171,536,168.2
			z"/>
	</g>
	<g id="POLYLINE_149_">
		<path class="st8" d="M548.2,168.2c0-6.2-3.2-12.1-8.3-15.4c-9.4-6.2-22.1-2.5-26.8,7.8c-2.2,4.8-2.2,10.5,0,15.2
			c4.7,10.3,17.4,13.9,26.8,7.8C545.1,180.3,548.3,174.4,548.2,168.2z"/>
	</g>
	<g id="POLYLINE_144_">
		<path class="st8" d="M536,217.1c0-2.8-1.9-5.3-4.7-6c-3.9-1-7.7,1.9-7.7,6c0,4.1,3.8,7.1,7.7,6.1
			C534.1,222.4,536.1,219.9,536,217.1z"/>
	</g>
	<g id="POLYLINE_143_">
		<path class="st8" d="M548.2,217.1c0-6.2-3.2-12.1-8.3-15.4c-9.4-6.2-22.1-2.5-26.8,7.8c-2.2,4.8-2.2,10.5,0,15.2
			c4.7,10.3,17.4,13.9,26.8,7.8C545.1,229.1,548.3,223.2,548.2,217.1z"/>
	</g>
	<g id="POLYLINE_142_">
		<path class="st8" d="M578.6,147.4c0-3.3-2.2-6.3-5.4-7.3c-3.2-1-6.7,0.2-8.6,2.9c-0.7,1.1-1.2,2.3-1.3,3.6
			c-0.1,0.9-0.1,21.8,0,22.6c0.2,1.3,0.6,2.5,1.4,3.5c2.3,3.3,6.9,4.1,10.3,2c1.8-1.2,3.1-3.1,3.5-5.3c0.1-0.3,0.1-0.7,0.1-1.1
			C578.6,168.2,578.6,147.5,578.6,147.4z"/>
	</g>
</g>
<g id="AG-OUTLINE">
	<g id="POLYLINE_65_">
		<path class="st10" d="M118.1,76.4c0.5,0,236.5,0,236.9,0c0.5,0,1,0.2,1.5,0.4c0.7,0.3,1.4,0.7,1.9,1.3c0.8,0.8,1.3,1.8,1.5,2.9
			c0.1,0.3,0.1,0.6,0.1,0.9c0,0.9-0.1,1.8-0.2,2.7c0.1,0.7,0.2,1.3,0.2,2v98h2.4v59.2H360v29.6h2.4v32.3H360v288.6
			c0,0.7-0.1,1.3-0.2,2c0.1,0.9,0.2,1.8,0.2,2.7c0,0.3,0,0.6-0.1,0.9c-0.2,1.2-0.8,2.3-1.7,3.1c-0.5,0.5-1.2,0.9-1.9,1.1
			c-0.4,0.2-0.9,0.3-1.4,0.3c-0.5,0.1-207.9,0-208.4,0c-0.1,0.8-0.4,1.6-0.9,2.2c-0.5,0.6-1.2,1.1-1.9,1.3c-0.4,0.2-0.9,0.3-1.3,0.3
			c-0.1,0-0.2,0-0.3,0c-0.1,0-12.1,0.2-12.1,0.2c-1,0-1.9-0.3-2.8-0.8c-1.1-0.7-1.8-1.9-1.9-3.2h-7.2c0,0-0.1,0-0.1,0
			c-0.2,0-0.4,0-0.6,0c-0.6-0.1-1.2-0.3-1.8-0.5c-1.4-0.7-2.5-2-2.8-3.5c-0.1-0.4-0.2-0.9-0.2-1.3c0-0.9,0.1-1.8,0.2-2.7
			c-0.1-0.5-0.2-1-0.2-1.5c0-0.2,0-507.8,0-508.1c0-0.7,0.1-1.3,0.2-2c-0.1-0.9-0.2-1.9-0.2-2.9c0-0.7,0.2-1.3,0.4-1.9
			c0.4-1,1.1-1.8,2-2.4C116,76.7,117,76.4,118.1,76.4z"/>
	</g>
	<g id="POLYLINE_63_">
		<path class="st10" d="M856.9,76.4c0.1,0,15,0,15,0c0.1,0,0.2,0,0.3,0c0.3,0,0.5,0.1,0.8,0.1c0.4,0.1,0.8,0.2,1.2,0.4
			c1.3,0.6,2.3,1.7,2.8,3.1c0.2,0.5,0.3,0.9,0.3,1.4c0,0.1,0,0.3,0,0.5V95c0.3,0,3.9,0,4.1,0c0.4,0.1,0.8,0.2,1.2,0.4
			c0.6,0.3,1.1,0.8,1.4,1.3c0.3,0.6,0.5,1.2,0.5,1.9v139.3l0,0l0,0l0,0l0,0l0,0l0,0l0,0l0,0l0,0l0,0l0,0l0,0l0,0l0,0l0,0l0,0l0,0
			l0,0l0,0l0,0l0,0l0,0l0,0l0,0l0,0l0,0l0,0l0,0l0,0l0,0l0,0l0,0l0,0l0,0l0,0l0,0l0,0l0,0l0,0l0,0l0,0l0,0l0,0l0,0l0,0l0,0l0,0l0,0
			l0,0l0,0l0,0l0,0l0,0l0,0l0,0l0,0l0,0l0,0l0,0l0,0l0,0l0,0l0,0l0,0l0,0l0,0l0,0l0,0l0,0l0,0l0,0l0,0l0,0l0,0l0,0l0,0l0,0l0,0l0,0
			l0,0l0,0l0,0l0,0l0,0l0,0l0,0l0,0l0,0l0,0l0,0l0,0l0,0l0,0l0,0l0,0l0,0l0,0l0,0l0,0l0,0l0,0l0,0l0,0l0,0l0,0l0,0l0,0l0,0l0,0l0,0
			l0,0l0,0l0,0l0,0l0,0l0,0l0,0l0,0l0,0l0,0l0,0l0,0l0,0l0,0l0,0l0,0l0,0l0,0h-3.6v357.3c0,1-0.3,2-0.8,2.9
			c-0.6,0.9-1.4,1.6-2.3,2.1c-0.7,0.3-1.5,0.5-2.3,0.5h-15c-0.1,0-0.3,0-0.5,0c-0.5,0-0.9-0.1-1.4-0.3c-1-0.3-1.9-1-2.5-1.8
			c-0.6-0.8-1-1.8-1.1-2.9c-0.1-0.8,0-516.9,0-517.7c0-0.5,0.1-0.9,0.2-1.3c0.2-0.6,0.5-1.1,0.8-1.6c0.5-0.7,1.2-1.3,2-1.7
			C855.2,76.6,856,76.4,856.9,76.4z"/>
	</g>
	<g id="POLYLINE_62_">
		<path class="st10" d="M482.2,84.5c-0.1-0.9-0.2-1.9-0.2-2.9c0-0.7,0.2-1.3,0.4-1.9c0.4-1,1.1-1.8,2-2.4c0.9-0.6,2-0.9,3-0.9h150.6
			h85.9c1.1,0,2.1,0.3,3,0.9c0.9,0.6,1.6,1.5,2,2.4c0.3,0.6,0.4,1.3,0.4,1.9c0,0.9-0.1,1.9-0.2,2.9c0.1,0.5,0.2,1,0.2,1.5
			c0,0.2,0,507.8,0,508.1c0,0.7-0.1,1.3-0.2,2c0.1,0.9,0.2,1.8,0.2,2.7c0,0.4-0.1,0.9-0.2,1.3c-0.4,1.5-1.4,2.9-2.8,3.5
			c-0.6,0.3-1.2,0.5-1.8,0.5c-0.1,0-0.2,0-0.4,0c-0.1,0-0.2,0-0.2,0h-7.2c-0.1,1.3-0.8,2.5-1.9,3.2c-0.8,0.5-1.8,0.8-2.8,0.8
			c0,0-12.1-0.2-12.1-0.2c-0.1,0-0.2,0-0.3,0c-0.4,0-0.9-0.1-1.3-0.3c-0.7-0.3-1.4-0.7-1.9-1.3c-0.5-0.6-0.9-1.4-0.9-2.2
			c-0.5,0-208,0-208.4,0c-0.5,0-1-0.2-1.4-0.3c-0.7-0.3-1.4-0.7-1.9-1.2c-0.8-0.8-1.3-1.8-1.5-2.9c-0.1-0.3-0.1-0.6-0.1-0.9
			c0-0.9,0.1-1.8,0.2-2.7c-0.1-0.7-0.2-1.3-0.2-2V305.6h-2.4v-32.3h2.4v-29.6h-2.4v-59.2h2.4v-98C482,85.9,482.1,85.2,482.2,84.5z"
			/>
	</g>
</g>
</svg>
